<?xml version="1.0" encoding="utf-8"?>
<!-- Generator: Adobe Illustrator 18.1.1, SVG Export Plug-In . SVG Version: 6.00 Build 0)  -->
<svg version="1.1" id="Layer_1" xmlns="http://www.w3.org/2000/svg" xmlns:xlink="http://www.w3.org/1999/xlink" x="0px" y="0px"
	 viewBox="0 0 480 479.7" enable-background="new 0 0 480 479.7" xml:space="preserve">
<path d="M0.1,239.9c0,44.1,10.8,84.2,32.3,120.2c21.5,37.1,50.6,66.4,87.4,87.7s76.9,32,120.2,32c43.5,0,83.7-10.6,120.7-32
	c37-21.5,66.1-50.7,87.3-87.6c21.2-36.9,31.8-77,31.8-120.3c0-44-10.6-84.2-32-120.7c-21.5-37-50.7-66.1-87.6-87.3S283.3,0,240,0
	c-44.1,0-84.2,10.8-120.2,32.3c-37.1,21.5-66.4,50.6-87.7,87.4S0.1,196.6,0.1,239.9L0.1,239.9z M40.1,239.9
	c0-26.7,5.2-52.4,15.7-77.2s24.8-46.2,43-64.2C117,80.3,138.4,66,163,55.6S213.4,40,240,40c26.7,0,52.4,5.2,77.2,15.6
	s46.3,24.7,64.5,42.9c18,18,32.2,39.4,42.6,64.2c10.4,24.8,15.6,50.5,15.6,77.2c0,28.7-5.9,56-17.6,82s-28.2,48.4-49.5,67.3
	c-21.2,18.9-45.5,32.6-72.9,41.1v-70.5c0-17.5-7.2-31.1-21.5-41c35.1-3.2,60.8-12.1,77.1-26.7c16.2-14.6,24.4-37.9,24.4-69.7
	c0-24.6-7.6-45.4-22.7-62.2c3-9,4.5-17.7,4.5-26c0-12.3-2.8-23.7-8.5-34c-11.2,0-21.1,1.8-30,5.5c-8.9,3.6-19.7,10-32.5,19
	c-15.5-3.5-31.5-5.2-48-5.2c-18.8,0-36.4,1.9-52.7,5.7c-12.5-9.2-23.3-15.6-32.4-19.4c-9.1-3.7-19.4-5.6-30.9-5.6
	c-5.5,10.5-8.2,21.8-8.2,34c0,8.7,1.4,17.4,4.2,26.2c-15.2,16.3-22.7,37-22.7,62c0,31.8,8.1,55,24.2,69.5
	c16.2,14.5,42,23.4,77.7,26.7c-9.5,6.3-16.1,15.6-19.8,27.8c-8.1,2.8-16.6,4.2-25.5,4.2c-6.7,0-12.4-1.5-17.3-4.5
	c-1.5-0.8-2.9-1.7-4.1-2.6c-1.2-0.9-2.6-2-3.9-3.4c-1.3-1.3-2.4-2.4-3.2-3.1c-0.8-0.8-1.9-2-3.2-3.9c-1.3-1.8-2.2-3-2.6-3.5
	c-0.4-0.5-1.4-1.8-3-4s-2.5-3.3-2.6-3.5c-7.8-10.3-17.2-15.5-28-15.5c-5.8,0-8.8,1.2-8.8,3.7c0,1,1.4,2.7,4.2,5
	c5.3,4.7,8.1,7.2,8.5,7.5c4,3.2,6.2,5.2,6.8,6c4.8,6,8.5,12.6,11,19.8c9.3,20.8,25.3,31.2,48,31.2c3.7,0,10.8-0.8,21.5-2.5v53
	c-27.3-8.5-51.6-22.2-72.9-41.1c-21.2-18.9-37.7-41.4-49.5-67.3C46,295.8,40.1,268.5,40.1,239.9L40.1,239.9z"/>
</svg>
